<svg version="1" xmlns="http://www.w3.org/2000/svg" width="400" height="400" viewBox="0 0 300.000000 300.000000"><path d="M168.7 60.8l-15.6 15.5-15-14.9c-8.3-8.2-15.5-15-15.9-15.2-.4-.1-2.1 1.1-3.6 2.7l-2.8 2.9 15.5 15.5 15.5 15.4-9.3 9.3-9.3 9.3-15.3-15.2C104.5 77.8 97.4 71 97 71c-.3 0-1.9 1.3-3.4 2.8l-2.7 2.9 15.5 15.4 15.5 15.4-9.3 9.2-9.3 9.3-15.5-15.5-15.5-15.4-3.4 3.5c-2.5 2.6-3 3.7-2.1 4.3.7.4 19.4 18.8 41.6 40.9l40.2 40.1v32.8c-.1 18 .1 33.8.2 34.9.4 2 2.5 2.4 8.3 1.5.3-.1.5-15.5.4-34.4l-.2-34.2 41.4-41.3c22.7-22.7 41.3-41.6 41.3-42.1 0-.4-1.2-1.9-2.8-3.4l-2.8-2.6-15.5 15.3-15.5 15.4-9.2-9c-5-4.9-9.2-9.1-9.2-9.4 0-.2 6.8-7.1 15-15.2 8.3-8.1 15-15.1 15-15.5 0-1.2-4.3-5.7-5.4-5.7-.6 0-7.9 6.8-16.1 15l-15.1 15.1-9.3-9.1c-5.2-5.1-8.9-9.5-8.5-10.1.3-.6 7.1-7.4 15-15.2C183.5 59 190 52.4 190 52c0-.4-1.3-2.1-2.9-3.7l-2.9-3-15.5 15.5zm-6 37.5l9.1 9.2-9.2 9.2-9.3 9.2-7.9-7.8c-4.3-4.2-8.5-8.5-9.2-9.4-1.2-1.4-.3-2.7 7.5-10.6 4.8-4.9 9-8.9 9.3-9 .3 0 4.6 4.1 9.7 9.2zm-25.1 24.9l9.1 9.3-9.3 9.1-9.3 9.1-9.3-9.4-9.3-9.3 9-8.9c5-5 9.2-9 9.5-9.1.3 0 4.6 4.2 9.6 9.2zm49.7-.4c4.8 4.8 8.7 9.1 8.7 9.6s-4 4.8-8.9 9.5l-9 8.7-9.2-9.2-9.3-9.3 9-9c4.9-4.9 9.1-9 9.4-9 .3-.1 4.5 3.8 9.3 8.7zm-24.7 25.3l9.2 9.1-9.1 8.9c-5.1 4.9-9.4 8.9-9.7 8.9-.3 0-4.6-4.1-9.5-9l-9-9 9-9c4.9-5 9.2-9 9.5-9 .2 0 4.6 4.1 9.6 9.1z"/></svg>