<svg xmlns="http://www.w3.org/2000/svg" xmlns:xlink="http://www.w3.org/1999/xlink" viewBox="0 0 360.11 90.43"><defs><style>.cls-1{fill:none;}.cls-2{isolation:isolate;}.cls-3{fill:#fff;}.cls-4{fill:#0d4f78;}.cls-5{fill:#5f9dd3;}.cls-6{fill:#fafbff;}.cls-7{fill:#f17b33;}.cls-8{opacity:0.1;mix-blend-mode:multiply;}.cls-9{clip-path:url(#clip-path);}.cls-10{fill:#010202;}.cls-11{clip-path:url(#clip-path-2);}.cls-12{clip-path:url(#clip-path-3);}.cls-13{opacity:0.3;}.cls-14{clip-path:url(#clip-path-4);}.cls-15{fill:#e3e4e5;}.cls-16{opacity:0.5;}.cls-17{clip-path:url(#clip-path-5);}.cls-18{clip-path:url(#clip-path-6);}.cls-19{fill:url(#Degradado_sin_nombre_27);}.cls-20{opacity:0.8;}.cls-21{clip-path:url(#clip-path-7);}.cls-22{clip-path:url(#clip-path-8);}.cls-23{fill:url(#Degradado_sin_nombre_28);}.cls-24{clip-path:url(#clip-path-9);}.cls-25{clip-path:url(#clip-path-10);}.cls-26{clip-path:url(#clip-path-11);}.cls-27{fill:url(#Degradado_sin_nombre_27-2);}.cls-28{clip-path:url(#clip-path-12);}.cls-29{clip-path:url(#clip-path-13);}.cls-30{fill:url(#Degradado_sin_nombre_28-2);}.cls-31{fill:#0e4a6c;}.cls-32{clip-path:url(#clip-path-14);}.cls-33{clip-path:url(#clip-path-15);}</style><clipPath id="clip-path"><rect class="cls-1" x="7.24" y="46.32" width="85.3" height="42.66"/></clipPath><clipPath id="clip-path-2"><rect class="cls-1" x="16.33" y="7.82" width="68.12" height="27.17"/></clipPath><clipPath id="clip-path-3"><rect class="cls-1" x="5.8" y="25.59" width="88.91" height="32.04"/></clipPath><clipPath id="clip-path-4"><rect class="cls-1" x="11.59" y="26.88" width="32.87" height="26.86"/></clipPath><clipPath id="clip-path-5"><rect class="cls-1" x="24.52" y="26.88" width="19.94" height="21.18"/></clipPath><clipPath id="clip-path-6"><path class="cls-1" d="M40.18,29.29A32.2,32.2,0,0,0,28.9,26.93c-1.57-.06-3-.05-4.38,0L39.66,48.06c3.74-4.76,4.62-11.23,4.76-12.46.2-1.84-.09-4.44-4.24-6.31"/></clipPath><linearGradient id="Degradado_sin_nombre_27" x1="623.55" y1="4670.64" x2="625.19" y2="4670.64" gradientTransform="matrix(12.16, 0, 0, -12.16, -7555.19, 56812.61)" gradientUnits="userSpaceOnUse"><stop offset="0" stop-color="#fff"/><stop offset="1" stop-color="#ced0d1"/></linearGradient><clipPath id="clip-path-7"><rect class="cls-1" x="12.84" y="28.38" width="15.86" height="13.42"/></clipPath><clipPath id="clip-path-8"><path class="cls-1" d="M15.83,32.43c2.54-2.87,12.46-3.78,12.87-3.74-.31-.31-4.72-.42-7.33-.17a19.61,19.61,0,0,0-6.77,1.74c-1.3.67-1.44,1.8-1.66,3.48a26.23,26.23,0,0,0,.61,8.06c-.17-1.34-.16-6.6,2.28-9.37"/></clipPath><linearGradient id="Degradado_sin_nombre_28" x1="605.19" y1="4736.43" x2="606.83" y2="4736.43" gradientTransform="matrix(9.67, 0, 0, -9.67, -5838.7, 45831.28)" gradientUnits="userSpaceOnUse"><stop offset="0" stop-color="#fff"/><stop offset="1" stop-color="#e4e5e6"/></linearGradient><clipPath id="clip-path-9"><rect class="cls-1" x="55.81" y="26.88" width="32.87" height="26.86"/></clipPath><clipPath id="clip-path-10"><rect class="cls-1" x="70.56" y="26.88" width="18.12" height="21.76"/></clipPath><clipPath id="clip-path-11"><path class="cls-1" d="M85.34,28.92c-2.6-1.34-7.29-2.24-14-2l-.81,0L86.09,48.64c2.1-3.8,2.63-9.52,2.59-12.71,0-3.42-.73-5.66-3.34-7"/></clipPath><linearGradient id="Degradado_sin_nombre_27-2" x1="618.19" y1="4696.3" x2="619.83" y2="4696.3" gradientTransform="matrix(11.05, 0, 0, -11.05, -6757.88, 51912.48)" xlink:href="#Degradado_sin_nombre_27"/><clipPath id="clip-path-12"><rect class="cls-1" x="57.46" y="28.18" width="15.02" height="15.29"/></clipPath><clipPath id="clip-path-13"><path class="cls-1" d="M60.26,33.76c2.11-3.2,11.81-5.49,12.22-5.51-.36-.27-4.74.25-7.28.87a18.72,18.72,0,0,0-6.47,2.67c-1.52,1.13-1.33,2-1.15,3.67a30.15,30.15,0,0,0,2.48,8c-.37-1.3-1.83-6.62.2-9.71"/></clipPath><linearGradient id="Degradado_sin_nombre_28-2" x1="602.14" y1="4754.49" x2="603.78" y2="4754.49" gradientTransform="matrix(9.15, 0, 0, -9.15, -5454.12, 43555.12)" xlink:href="#Degradado_sin_nombre_28"/><clipPath id="clip-path-14"><rect class="cls-1" x="37.6" y="32.69" width="7.69" height="18.08"/></clipPath><clipPath id="clip-path-15"><rect class="cls-1" x="55.14" y="32.82" width="7.69" height="18.08"/></clipPath></defs><g class="cls-2"><g id="OBJECTS"><path class="cls-3" d="M49.89,89.56A41.78,41.78,0,0,1,20.35,18.24,41.78,41.78,0,0,1,79.44,77.33,41.54,41.54,0,0,1,49.89,89.56"/><path class="cls-4" d="M50.71,87.12A37,37,0,0,0,77.65,76,39.1,39.1,0,0,0,87.87,38.85,38.6,38.6,0,0,0,50.71,87.12"/><path class="cls-5" d="M13.17,38.8l3.74.2a17.19,17.19,0,0,0,29.2,10.45,15.32,15.32,0,0,1,3.67,7.29l1.6,0a16.51,16.51,0,0,1,3.49-7.38l.09,0a17.79,17.79,0,0,0,2.68,2.21l.07.06A40,40,0,0,0,49.43,87,38.62,38.62,0,0,1,11.86,48.43a37.28,37.28,0,0,1,1.27-9.64"/><path class="cls-6" d="M84.23,37A17.28,17.28,0,1,1,67,19.73,17.28,17.28,0,0,1,84.23,37"/><path class="cls-4" d="M77.25,20.66a18.41,18.41,0,0,1-2.56,1.12v-.06A17,17,0,0,1,84.26,37,17.24,17.24,0,0,1,84.14,39v.08c1.3-.12,2.62-.19,3.95-.19h0a38.76,38.76,0,0,0-10.3-17.81l-.49-.48Z"/><path class="cls-3" d="M73,32.62a2.95,2.95,0,1,1-3-2.95,2.95,2.95,0,0,1,3,2.95"/><path class="cls-3" d="M62.28,40.73a5.92,5.92,0,0,0,1.52,1.39l2.06-3.49Z"/><path class="cls-4" d="M62.43,36.89a5.08,5.08,0,1,0,5.07-5.08,5.07,5.07,0,0,0-5.07,5.08"/><path class="cls-7" d="M50.39,55.54a17.79,17.79,0,0,1,3.67-6.89v0a17.62,17.62,0,0,1-3.65-6.84h0a17.89,17.89,0,0,1-3.65,6.84v0a17.92,17.92,0,0,1,3.67,6.89Z"/><path class="cls-5" d="M23.72,20.88A17.35,17.35,0,0,0,26.25,22l0-.05A16.92,16.92,0,0,0,16.81,37.1a15.31,15.31,0,0,0,.13,2v.08A38.73,38.73,0,0,0,13,39h0A38.61,38.61,0,0,1,23.2,21.32l.49-.48Z"/><path class="cls-4" d="M39.94,36.89a5.08,5.08,0,1,1-5.08-5.08,5.08,5.08,0,0,1,5.08,5.08"/><g class="cls-8"><g class="cls-9"><path class="cls-10" d="M92.54,46.33A42.65,42.65,0,0,1,19.73,76.49,42.37,42.37,0,0,1,7.24,46.33h4.95a37.7,37.7,0,1,0,75.4,0Z"/></g></g><path class="cls-4" d="M49.89,90.43A42.65,42.65,0,0,1,19.73,17.62,42.65,42.65,0,0,1,80.05,77.94,42.37,42.37,0,0,1,49.89,90.43m0-80.35A37.7,37.7,0,0,0,23.23,74.44,37.7,37.7,0,0,0,76.55,21.12a37.46,37.46,0,0,0-26.66-11"/><g class="cls-8"><g class="cls-11"><path class="cls-10" d="M50.37,24.7l-34-16.89c-.19,2.13-.7,14.67,16.09,16.1.35,0,.7,0,1.05,0a18.42,18.42,0,0,1,16.85,11Z"/><path class="cls-10" d="M84.4,7.81l-34,16.91V35A18.43,18.43,0,0,1,67.25,23.87c.36,0,.71,0,1.06,0,16.78-1.43,16.28-14,16.09-16.1"/></g></g><g class="cls-8"><g class="cls-12"><path class="cls-10" d="M75.39,57.63A41.87,41.87,0,0,1,70,57.25a17.61,17.61,0,0,1-10-4.49,24.5,24.5,0,0,1-7.1-14.59l0-.34c-.18-1.16-1-1.75-2.54-1.75h-.12c-2.18,0-2.44,1.26-2.53,1.73v0l-.18,1a23.49,23.49,0,0,1-2,6.91,24.47,24.47,0,0,1-4.95,7,17.57,17.57,0,0,1-10,4.48,42.14,42.14,0,0,1-5.36.38c-5.94,0-10-1.65-12.44-5-3.17-4.41-3.8-11.27-4.06-14.2l0-.35c-.22-2.42-1.3-2.93-1.76-3a1.15,1.15,0,0,1-1-1.28c0-.38-.08-2.72,0-3.57a1.65,1.65,0,0,1,.94-1.56,42.52,42.52,0,0,1,6.77-1.66,66.06,66.06,0,0,1,13.1-1.34c1.65,0,3.35.06,5,.19a55.94,55.94,0,0,1,14,3.29,21.3,21.3,0,0,0,4.62.5,25.44,25.44,0,0,0,4.6-.5,55.8,55.8,0,0,1,14-3.29c1.7-.13,3.39-.19,5-.19A66,66,0,0,1,87,26.93a41.66,41.66,0,0,1,6.77,1.66,1.65,1.65,0,0,1,.94,1.56c0,.85,0,3.19,0,3.57a1.16,1.16,0,0,1-1,1.28c-.45.11-1.53.62-1.76,3l0,.34c-.26,2.94-.88,9.8-4,14.21-2.44,3.39-6.51,5-12.45,5M73.64,28.87c-.69,0-1.41,0-2.13,0a31.51,31.51,0,0,0-11.08,2.32C56.52,33,56.31,35.36,56.5,37a29.14,29.14,0,0,0,2.35,8.41c2.23,4.78,5.49,7.65,9.69,8.52a32.64,32.64,0,0,0,6.57.74c4.82,0,8.44-1.46,10.19-4.1,1.42-2.13,3-6.87,3-13.18,0-3.64-.87-5.42-3.06-6.54-2.47-1.28-6.58-2-11.57-2m-46.77,0c-5,0-9.11.7-11.58,2-2.18,1.12-3,2.9-3.06,6.54-.07,6.31,1.56,11,3,13.18,1.75,2.64,5.37,4.1,10.19,4.1h0A32.48,32.48,0,0,0,32,53.93c4.21-.87,7.46-3.74,9.69-8.52A29.3,29.3,0,0,0,44,37c.18-1.64,0-4-3.93-5.77A31.67,31.67,0,0,0,29,28.91c-.73,0-1.44,0-2.13,0"/></g></g><path class="cls-4" d="M84.4,7.12,50.37,24V34.3A18.43,18.43,0,0,1,67.25,23.18c.36,0,.71,0,1.06,0,16.78-1.43,16.28-14,16.09-16.1"/><path class="cls-5" d="M50.37,24l-34-16.9c-.19,2.13-.7,14.67,16.09,16.1.35,0,.7,0,1.05,0a18.43,18.43,0,0,1,16.85,11Z"/><g class="cls-13"><g class="cls-14"><path class="cls-15" d="M40.18,29.29A32.2,32.2,0,0,0,28.9,26.93c-6.67-.25-11.36.65-14,2s-3.29,3.59-3.33,7,.57,9.73,3.05,13.47S23.12,54.82,32,53c10.4-2.16,12.25-15.56,12.46-17.39s-.09-4.44-4.24-6.31"/></g></g><g class="cls-16"><g class="cls-17"><g class="cls-18"><rect class="cls-19" x="24.52" y="26.87" width="20.1" height="21.19"/></g></g></g><g class="cls-20"><g class="cls-21"><g class="cls-22"><rect class="cls-23" x="12.58" y="28.27" width="16.13" height="13.53"/></g></g></g><g class="cls-13"><g class="cls-24"><path class="cls-15" d="M60.09,29.29a32.28,32.28,0,0,1,11.28-2.36c6.68-.25,11.37.65,14,2s3.3,3.59,3.34,7-.57,9.73-3.05,13.47S77.16,54.82,68.32,53C57.91,50.83,56.06,37.43,55.86,35.6s.08-4.44,4.23-6.31"/></g></g><g class="cls-16"><g class="cls-25"><g class="cls-26"><rect class="cls-27" x="70.56" y="26.68" width="18.16" height="21.96"/></g></g></g><g class="cls-20"><g class="cls-28"><g class="cls-29"><rect class="cls-30" x="57.21" y="27.98" width="15.27" height="15.48"/></g></g></g><path class="cls-31" d="M75.28,56.26a40.27,40.27,0,0,1-5.36-.38,17.64,17.64,0,0,1-10-4.49A24.48,24.48,0,0,1,52.79,36.8l0-.34c-.18-1.16-1-1.75-2.54-1.75h-.12c-2.18,0-2.44,1.26-2.53,1.73v.05c-.06.27-.11.6-.18,1a23.86,23.86,0,0,1-2,6.91,24.43,24.43,0,0,1-4.94,7,17.57,17.57,0,0,1-10,4.48,40.38,40.38,0,0,1-5.36.38c-5.94,0-10-1.64-12.45-5C9.38,46.81,8.76,40,8.5,37l0-.35c-.23-2.42-1.3-2.93-1.76-3a1.16,1.16,0,0,1-1-1.27c0-.39-.07-2.73,0-3.58a1.66,1.66,0,0,1,.94-1.56,42.09,42.09,0,0,1,6.77-1.66,66.81,66.81,0,0,1,13.1-1.34c1.65,0,3.34.06,5,.19a56.07,56.07,0,0,1,14,3.29,21.3,21.3,0,0,0,4.62.5,25.44,25.44,0,0,0,4.6-.5,56.29,56.29,0,0,1,14-3.29c1.7-.13,3.39-.19,5-.19a66.81,66.81,0,0,1,13.1,1.34,42.09,42.09,0,0,1,6.77,1.66,1.66,1.66,0,0,1,.94,1.56c0,.85,0,3.19,0,3.58a1.15,1.15,0,0,1-1,1.27c-.46.11-1.53.62-1.76,3l0,.35c-.26,2.93-.88,9.79-4.06,14.2-2.43,3.4-6.5,5-12.44,5M73.52,27.5c-.69,0-1.4,0-2.12,0a31.78,31.78,0,0,0-11.08,2.32c-3.91,1.76-4.12,4.13-3.94,5.77A29.22,29.22,0,0,0,58.74,44c2.23,4.78,5.49,7.65,9.69,8.52A32.48,32.48,0,0,0,75,53.3c4.82,0,8.44-1.45,10.19-4.1,1.42-2.13,3-6.87,3-13.18,0-3.64-.88-5.42-3.06-6.54-2.47-1.28-6.58-2-11.58-2m-46.76,0c-5,0-9.11.7-11.58,2-2.19,1.12-3,2.9-3.06,6.54-.07,6.31,1.55,11,3,13.18,1.75,2.64,5.37,4.1,10.19,4.1a32.56,32.56,0,0,0,6.57-.74c4.2-.87,7.46-3.74,9.69-8.52a29.06,29.06,0,0,0,2.35-8.41c.19-1.64,0-4-3.92-5.77a31.93,31.93,0,0,0-11.08-2.32c-.73,0-1.44,0-2.13,0"/><g class="cls-8"><g class="cls-32"><path class="cls-10" d="M44.74,32.69s1.4,2.46-.25,8.63a15.35,15.35,0,0,1-6.89,9.45,19.31,19.31,0,0,0,5.88-9.54c1.63-6.44,1.26-8.54,1.26-8.54"/></g></g><path class="cls-3" d="M92.7,30.54a1,1,0,1,1-1-1,1,1,0,0,1,1,1"/><g class="cls-8"><g class="cls-33"><path class="cls-10" d="M55.69,32.82s-1.4,2.46.24,8.63a15.34,15.34,0,0,0,6.9,9.45A19.23,19.23,0,0,1,57,41.36c-1.63-6.44-1.26-8.54-1.26-8.54"/></g></g><path class="cls-3" d="M9.09,30.54a1,1,0,0,1-1.93,0,1,1,0,1,1,1.93,0"/><path class="cls-3" d="M120.77,71.39V29.26h-9.14a5.32,5.32,0,0,1-4.26-1.71,6.27,6.27,0,0,1-.76-6.93,5.52,5.52,0,0,1,2-2.16,5.7,5.7,0,0,1,3-.8h30.86a5.7,5.7,0,0,1,3,.8,5.52,5.52,0,0,1,2,2.16,6,6,0,0,1,.72,2.84,6.14,6.14,0,0,1-1.44,4.09,5.29,5.29,0,0,1-4.3,1.71h-9.14V71.39a6.4,6.4,0,0,1-1.74,4.81,6.18,6.18,0,0,1-4.53,1.7,6.24,6.24,0,0,1-4.57-1.7,6.4,6.4,0,0,1-1.74-4.81"/><path class="cls-3" d="M210.57,69.29,227.14,24.5a11.32,11.32,0,0,1,3.47-5,8.22,8.22,0,0,1,5.33-1.87,8.38,8.38,0,0,1,5.45,1.85,10.9,10.9,0,0,1,3.36,5l16.16,44.79a9.15,9.15,0,0,1,.64,3,5.2,5.2,0,0,1-.78,2.82,5.33,5.33,0,0,1-2.07,1.93,6,6,0,0,1-2.82.68,5.82,5.82,0,0,1-6-4.24l-2.45-7.74H224.52L222,73.45a5.67,5.67,0,0,1-5.91,4.32,6.1,6.1,0,0,1-4.32-1.66A5.37,5.37,0,0,1,210,72a8.09,8.09,0,0,1,.56-2.73m25.29-38.76-7.8,23.88H243.7L236,30.53Z"/><path class="cls-3" d="M270.6,71.39V29.26h-9.14a5.31,5.31,0,0,1-4.26-1.71,6.06,6.06,0,0,1-1.47-4.09,6,6,0,0,1,.71-2.84,5.52,5.52,0,0,1,2.05-2.16,5.7,5.7,0,0,1,3-.8h30.86a5.7,5.7,0,0,1,3,.8,5.52,5.52,0,0,1,2,2.16,6,6,0,0,1,.72,2.84,6.14,6.14,0,0,1-1.44,4.09,5.3,5.3,0,0,1-4.3,1.71h-9.14V71.39a6.4,6.4,0,0,1-1.74,4.81,6.18,6.18,0,0,1-4.53,1.7,6.24,6.24,0,0,1-4.57-1.7,6.4,6.4,0,0,1-1.74-4.81"/><path class="cls-3" d="M325.37,77.71a30,30,0,1,1,30-30,30.06,30.06,0,0,1-30,30m0-49.18a19.16,19.16,0,1,0,19.16,19.15,19.17,19.17,0,0,0-19.16-19.15"/><path class="cls-3" d="M166.35,71.91c0,7.53-11.51,7.79-11.51.18V22.94A5.17,5.17,0,0,1,160,17.66h23c22,0,26.48,29.42,8.13,36.77l11.51,14c4.5,6.66-4.5,13.07-9.69,6.49L179.93,56.25H166.35Zm0-25.61h16.7c11.25,0,11.94-18.17,0-18.17h-16.7Z"/></g></g></svg>
